<?xml version="1.0" standalone="no"?>
<!DOCTYPE svg PUBLIC "-//W3C//DTD SVG 20010904//EN"
 "http://www.w3.org/TR/2001/REC-SVG-20010904/DTD/svg10.dtd">
<svg version="1.0" xmlns="http://www.w3.org/2000/svg"
 width="512.000000pt" height="512.000000pt" viewBox="0 0 512.000000 512.000000"
 preserveAspectRatio="xMidYMid meet">
<metadata>
Created by potrace 1.14, written by Peter Selinger 2001-2017
</metadata>
<g transform="translate(0.000000,512.000000) scale(0.100000,-0.100000)"
fill="#000000" stroke="none">
<path d="M2250 5044 c-139 -18 -245 -39 -355 -70 -608 -170 -1122 -553 -1462
-1091 -135 -215 -262 -529 -318 -786 -154 -713 9 -1463 443 -2040 413 -548
1013 -894 1705 -982 152 -19 442 -19 594 0 377 48 717 168 1030 363 644 402
1070 1075 1158 1830 75 636 -101 1285 -483 1795 -333 442 -801 761 -1337 911
-215 60 -425 86 -678 85 -106 -1 -239 -7 -297 -15z m695 -1379 c119 -17 176
-34 258 -76 131 -66 222 -162 270 -287 20 -50 35 -185 29 -254 l-4 -48 -248 0
-247 0 -6 51 c-13 104 -83 168 -209 189 -235 40 -428 -67 -428 -236 0 -107 76
-152 384 -230 116 -29 239 -64 273 -78 257 -102 389 -289 369 -524 -32 -389
-312 -646 -775 -713 -137 -19 -403 -7 -526 25 -248 64 -405 206 -455 411 -12
50 -16 268 -5 286 4 5 108 9 249 9 l243 0 6 -65 c3 -35 15 -82 27 -105 86
-169 455 -198 625 -49 95 84 101 216 13 282 -59 44 -96 57 -346 121 -266 69
-348 100 -448 171 -125 89 -184 204 -184 358 0 435 412 767 960 776 41 0 120
-6 175 -14z"/>
</g>
</svg>
